<?xml version="1.0" encoding="UTF-8"?>
<svg id="_圖層_1" data-name="圖層 1" xmlns="http://www.w3.org/2000/svg" viewBox="0 0 1080 1080">
  <defs>
    <style>
      .cls-1 {
        fill: #fdf9ef;
      }
    </style>
  </defs>
  <path class="cls-1" d="M133.58,649.84l-117.8,13.07-4.05-36.46,77.95-36.54-.04-.33-83.9-17.08-4.05-36.46,117.8-13.07,2.69,24.25-83.48,9.26.04.33,86.69,19.61,2.22,19.96-79.45,38.05.04.33,82.66-9.17,2.69,24.25Z"/>
  <path class="cls-1" d="M129.03,473.69l-45.31-8.74-79.34,29.16,5.57-28.85,51.22-18.35-40.74-35.92,5.5-28.52,63.38,57.03,44.66,8.62-4.94,25.59Z"/>
  <path class="cls-1" d="M165.39,354.97l-101.03-61.98,43.57-71.03,18.68,11.46-29.95,48.82,23.35,14.32,25.95-42.31,17.26,10.59-25.95,42.31,41.74,25.61-13.63,22.22Z"/>
  <path class="cls-1" d="M207.87,282.86l-50.62-116.23,19.12-18.67,114.52,53.84-19.36,18.9-24.85-12.62-31.71,30.96,11.79,25.38-18.88,18.44ZM186.93,178.48l19.34,41.9,21.97-21.46-41.07-20.68-.24.23Z"/>
  <path class="cls-1" d="M321.53,49.09l24.68,122.42-25.51,14.58-92.26-83.78,23.35-13.35,64.27,59.24.29-.16-18.16-85.61,23.35-13.35Z"/>
  <path class="cls-1" d="M433.29,136.02l-19.65-116.88,82.18-13.82,3.63,21.61-56.48,9.49,4.54,27.01,48.95-8.23,3.36,19.97-48.95,8.23,8.12,48.29-25.7,4.32Z"/>
  <path class="cls-1" d="M528.57,122.45l7.37-118.29,26.01,1.62-6.01,96.43,57.66,3.59-1.36,21.87-83.67-5.21Z"/>
  <path class="cls-1" d="M625.58,132.59l27.89-115.2,25.33,6.13-27.89,115.2-25.33-6.13Z"/>
  <path class="cls-1" d="M752.09,180.14l3.39-13.28c-12.26,6.17-24.38,6.39-36.37.67-16.08-7.67-26.39-19.21-30.94-34.62-4.38-14.72-2.76-30.07,4.86-46.05,7.81-16.38,18.84-27.55,33.09-33.51,14.78-6.31,30.26-5.61,46.45,2.11,11.49,5.48,19.88,13.47,25.17,23.96,5.65,11.28,6.29,23.05,1.92,35.31l-22.47-10.72c1.46-6.41.91-12.13-1.65-17.16-2.57-5.02-6.7-8.9-12.39-11.61-9.89-4.72-19.19-4.49-27.91.67-7.5,4.4-13.72,11.79-18.67,22.18-4.77,9.99-6.48,19.23-5.13,27.72,1.62,9.97,7.32,17.29,17.11,21.96,15.58,7.43,27.74,3.79,36.48-10.92l-23.67-11.29,8.36-17.53,44.95,21.44-27.59,57.83-14.98-7.15Z"/>
  <path class="cls-1" d="M781.46,197.53l79.41-87.99,19.35,17.46-30.47,33.77,35.62,32.14,30.47-33.77,19.35,17.46-79.41,87.99-19.35-17.46,34.25-37.96-35.62-32.14-34.25,37.96-19.35-17.46Z"/>
  <path class="cls-1" d="M882.06,302.8l81.03-52.62-19.35-29.79,18.38-11.93,52.89,81.44-18.38,11.93-19.35-29.79-81.03,52.62-14.19-21.86Z"/>
  <path class="cls-1" d="M1039.71,349.78l-19.3,7.62,13.86,15.23-10.24,8.86-13.21-15.84-10.62,17.4-11.59-7.21,11.39-17.7-20.17-4.53,3.48-13.33,19.64,5.45-1.05-20.29,13.54-.52.09,20.13,19.3-7.62,4.88,12.35Z"/>
  <path class="cls-1" d="M945.39,426.39l117.67-14.16,4.38,36.42-77.61,37.26.04.33,84.06,16.3,4.38,36.42-117.67,14.16-2.92-24.23,83.39-10.04-.04-.33-86.87-18.8-2.4-19.94,79.1-38.78-.04-.33-82.57,9.94-2.92-24.23Z"/>
  <path class="cls-1" d="M951.56,602.5l45.39,8.32,79.06-29.89-5.3,28.9-51.04,18.83,41.08,35.54-5.24,28.57-63.91-56.44-44.74-8.2,4.7-25.64Z"/>
  <path class="cls-1" d="M916.32,721.55l101.6,61.03-42.91,71.43-18.78-11.28,29.49-49.09-23.48-14.1-25.56,42.55-17.36-10.43,25.56-42.55-41.98-25.22,13.42-22.34Z"/>
  <path class="cls-1" d="M874.51,794.04l51.69,115.76-18.95,18.85-115.01-52.77,19.18-19.08,24.97,12.39,31.42-31.26-12.02-25.27,18.71-18.61ZM896.42,898.21l-19.73-41.72-21.77,21.66,41.26,20.3.24-.23Z"/>
  <path class="cls-1" d="M763.02,1028.86l-25.81-122.19,25.37-14.82,93.04,82.92-23.22,13.56-64.82-58.64-.29.17,18.96,85.43-23.22,13.56Z"/>
  <path class="cls-1" d="M650.46,942.97l20.74,116.7-82.05,14.58-3.83-21.57,56.39-10.02-4.79-26.97-48.87,8.68-3.54-19.94,48.87-8.68-8.57-48.21,25.66-4.56Z"/>
  <path class="cls-1" d="M555.31,957.42l-6.28,118.36-26.03-1.38,5.12-96.48-57.69-3.06,1.16-21.88,83.71,4.44Z"/>
  <path class="cls-1" d="M458.21,948.19l-26.81,115.45-25.39-5.9,26.81-115.45,25.39,5.9Z"/>
  <path class="cls-1" d="M331.26,901.82l-3.27,13.31c12.2-6.28,24.32-6.62,36.36-1.01,16.15,7.52,26.57,18.97,31.26,34.33,4.52,14.68,3.04,30.04-4.43,46.09-7.66,16.45-18.59,27.72-32.77,33.81-14.72,6.45-30.21,5.89-46.46-1.68-11.54-5.37-20-13.28-25.39-23.73-5.76-11.23-6.51-22.99-2.25-35.29l22.57,10.51c-1.4,6.42-.8,12.14,1.81,17.14,2.62,5,6.78,8.83,12.5,11.5,9.93,4.62,19.23,4.31,27.9-.93,7.45-4.47,13.61-11.92,18.46-22.35,4.67-10.03,6.3-19.29,4.87-27.76-1.71-9.95-7.48-17.22-17.32-21.8-15.65-7.29-27.77-3.53-36.37,11.26l23.78,11.07-8.2,17.61-45.15-21.02,27.05-58.09,15.05,7.01Z"/>
  <path class="cls-1" d="M301.72,884.7l-78.59,88.72-19.51-17.28,30.16-34.05-35.91-31.81-30.16,34.05-19.51-17.28,78.59-88.72,19.51,17.28-33.9,38.27,35.91,31.81,33.9-38.27,19.51,17.28Z"/>
  <path class="cls-1" d="M200.16,780.37l-80.53,53.37,19.62,29.61-18.27,12.1-53.64-80.95,18.27-12.1,19.62,29.61,80.53-53.37,14.4,21.72Z"/>
  <path class="cls-1" d="M42.09,734.88l19.23-7.8-14.01-15.1,10.16-8.96,13.36,15.72,10.46-17.5,11.66,7.1-11.23,17.81,20.21,4.34-3.36,13.36-19.69-5.27,1.24,20.28-13.53.65-.28-20.13-19.23,7.8-4.99-12.31Z"/>
</svg>